<svg id="Layer_1" data-name="Layer 1" xmlns="http://www.w3.org/2000/svg" viewBox="0 0 49.08 32.76"><defs><style>.cls-1{fill:#da3743;}.cls-2{fill:#130849;}</style></defs><path class="cls-1" d="M70.87,28a.78.78,0,0,0-.57-.18h-.79v1.39h.79a.74.74,0,0,0,.57-.19.78.78,0,0,0,0-1Z" transform="translate(-39.99 -1.62)"/><polygon class="cls-1" points="34.17 28.49 35.54 28.49 34.86 26.52 34.17 28.49"/><polygon class="cls-1" points="20.31 28.49 21.68 28.49 20.99 26.52 20.31 28.49"/><path class="cls-1" d="M40,24.42v10H89v-10Zm5.55,7.34-1-1.83h-.45v1.83h-.94V27.05h1.77a2.2,2.2,0,0,1,.93.19,1.41,1.41,0,0,1,.58.52,1.54,1.54,0,0,1,.19.74,1.4,1.4,0,0,1-.27.84,1.37,1.37,0,0,1-.8.51l1.12,1.91Zm4.63-4H48.38V29H50v.74H48.38V31h1.79v.77H47.44V27h2.73Zm3.95,3.29a1.37,1.37,0,0,1-.57.52,1.93,1.93,0,0,1-.9.19,2.31,2.31,0,0,1-.89-.17,1.43,1.43,0,0,1-.62-.48,1.39,1.39,0,0,1-.24-.75h1a.67.67,0,0,0,.2.46.91.91,0,0,0,1,0,.49.49,0,0,0,.19-.41.45.45,0,0,0-.13-.34.83.83,0,0,0-.32-.22,4.83,4.83,0,0,0-.53-.17,5.44,5.44,0,0,1-.74-.27,1.34,1.34,0,0,1-.5-.39,1.2,1.2,0,0,1-.2-.72,1.25,1.25,0,0,1,.21-.72,1.31,1.31,0,0,1,.58-.48,2.18,2.18,0,0,1,.87-.17,1.84,1.84,0,0,1,1.18.36,1.31,1.31,0,0,1,.51,1h-1a.53.53,0,0,0-.21-.4.76.76,0,0,0-.51-.16.63.63,0,0,0-.44.14.51.51,0,0,0-.17.41.39.39,0,0,0,.13.31.77.77,0,0,0,.31.21l.52.18a5.16,5.16,0,0,1,.75.27,1.36,1.36,0,0,1,.5.4,1.13,1.13,0,0,1,.21.71A1.32,1.32,0,0,1,54.12,31.1Zm4.22-3.29H57.09v4h-1v-4H54.89v-.76h3.45Zm3.89,4-.31-.89H60l-.31.89h-1L60.43,27h1.1l1.7,4.72ZM67.66,30a1.93,1.93,0,0,1-.26,1,1.74,1.74,0,0,1-.7.62,2.19,2.19,0,0,1-1,.21,2.11,2.11,0,0,1-1-.21A1.57,1.57,0,0,1,64.1,31a1.93,1.93,0,0,1-.25-1V27.05h.94V30a1,1,0,0,0,.25.73,1,1,0,0,0,.71.25.92.92,0,0,0,.7-.25A1,1,0,0,0,66.7,30V27.05h1ZM71,31.76l-1-1.83h-.45v1.83h-.94V27.05h1.76a2.22,2.22,0,0,1,.94.19A1.37,1.37,0,0,1,72,28.5a1.4,1.4,0,0,1-.27.84,1.36,1.36,0,0,1-.81.51l1.13,1.91Zm5.09,0-.31-.89H73.9l-.31.89h-1L74.3,27h1.1l1.69,4.72Zm5.66,0h-.94l-2.14-3.23v3.23h-1V27h1l2.14,3.24V27h.94Zm4.14-4H84.64v4h-1v-4H82.44v-.76h3.45Z" transform="translate(-39.99 -1.62)"/><path class="cls-1" d="M45.42,28a.82.82,0,0,0-.58-.18h-.79v1.39h.79a.78.78,0,0,0,.58-.19.78.78,0,0,0,0-1Z" transform="translate(-39.99 -1.62)"/><path class="cls-2" d="M41.42,6Q42,4.64,45.86,3.86a3.46,3.46,0,0,1,.61-.07A2.47,2.47,0,0,1,48,4.28a2.72,2.72,0,0,1,1,1.36,23.34,23.34,0,0,1,.68,4.69c0,.55.05,1,.05,1.45a53.2,53.2,0,0,1-.36,6,12.37,12.37,0,0,1-.75,3.77,2.3,2.3,0,0,1-.68.63,1.42,1.42,0,0,1-1.64,0,1.91,1.91,0,0,1-.67-.61,3.17,3.17,0,0,1-.29-1.65c0-.6.07-1.77.21-3.52,0-.44.17-2,.37-4.65,0-.4.07-.91.1-1.21l-.88.07-1.14.1a.29.29,0,0,0-.27.11,1.33,1.33,0,0,0-.12.52c0,.09,0,.62,0,1.58,0,.62,0,1.84,0,3.68,0,2,0,3.11,0,3.32a10.49,10.49,0,0,1-.07,1.7,1.52,1.52,0,0,1-.61.76,1.55,1.55,0,0,1-.92.33,1.63,1.63,0,0,1-1.58-1.19A12.52,12.52,0,0,1,40,17.41c0-.54,0-1,0-1.46,0-1.2.13-2.3.22-3.29s.31-2.16.6-3.81A23.89,23.89,0,0,1,41.42,6Zm4.93.32V6.24a1.49,1.49,0,0,0,0-.24.23.23,0,0,0-.06-.12.25.25,0,0,0-.17,0,10,10,0,0,0-1.41.29l-1.22.29V8.8L44,8.72l1.33-.14.88-.1c0-.21.07-.62.09-.83A12.89,12.89,0,0,0,46.35,6.32Z" transform="translate(-39.99 -1.62)"/><path class="cls-2" d="M57.58,2a1.6,1.6,0,0,1,1.11-.39,1.43,1.43,0,0,1,.66.15,2.87,2.87,0,0,1,.92,1.7q.58,2.13.83,12.17c0,.58,0,1.24,0,2s0,1.29,0,1.7,0,.73,0,1A4.3,4.3,0,0,1,61,22a1.92,1.92,0,0,1-.75.67,2.06,2.06,0,0,1-1,.31h-.15c-.73-.15-2.24-.3-4.54-.47a7.28,7.28,0,0,1-3.32-.74,2.62,2.62,0,0,1-.81-2.27c0-.42,0-.9.07-1.43,0-.24.06-.77.13-1.57s.13-1.37.16-1.71A12.63,12.63,0,0,1,51.3,12a1.81,1.81,0,0,1,.88-1.14,10.43,10.43,0,0,1,2.6-.17,9,9,0,0,1,1.78.1l.38.12c0-.72-.07-2.17-.09-2.89,0-.46,0-1.07,0-1.85C56.82,3.84,57.07,2.46,57.58,2ZM57,13.65a5.91,5.91,0,0,0-1.41-.12l-1.31,0v1.22c0,.71,0,1.63-.15,2.77,0,.53-.07.93-.07,1.19s0,.4.07.43a4.24,4.24,0,0,0,1.26.23,15.91,15.91,0,0,0,1.59.14h.12a6.48,6.48,0,0,0,0-1.22A28.58,28.58,0,0,0,57,13.65Z" transform="translate(-39.99 -1.62)"/><path class="cls-2" d="M67.22,7.08s.15-.07.32-.07a2.51,2.51,0,0,1,1.16.27,2.44,2.44,0,0,1,1.12,1.94,44.33,44.33,0,0,1,.29,6.32,22.4,22.4,0,0,1-.27,4.9,3.36,3.36,0,0,1-.68.9,2.12,2.12,0,0,1-.57.5,1.81,1.81,0,0,1-.69.08c-.52,0-1.36-.05-2.53-.17a6.74,6.74,0,0,1-2.78-.7A2.06,2.06,0,0,1,62,19.28c0-.33,0-.69.06-1.07s.07-.79.12-1.22c0-.16,0-.3.06-.44l.06-.41c0-.33.11-.62.16-.85a1.5,1.5,0,0,1,.15-.46c.24-.36,1.08-.61,2.52-.78l1.29-.17c0-.32.07-1,.1-1.28.06-.94.1-1.63.1-2.07V9.75l-.78.08A5.28,5.28,0,0,0,65,10a8.5,8.5,0,0,0,0,1.41,7.48,7.48,0,0,1,0,1.2.69.69,0,0,1-.24.42,1,1,0,0,1-.73.25,1.26,1.26,0,0,1-1.28-.8,3.93,3.93,0,0,1-.08-1,9.47,9.47,0,0,1,.32-3.13,1.3,1.3,0,0,1,.76-.67,8.1,8.1,0,0,1,1.93-.33A6.47,6.47,0,0,0,67.22,7.08Zm-1,10.69c0-.26,0-.78,0-1-.22,0-.52,0-.93-.05l-.92-.05v2.18H66.3C66.29,18.55,66.26,18,66.25,17.77Z" transform="translate(-39.99 -1.62)"/><path class="cls-1" d="M71.74,8.57a1.32,1.32,0,0,1,.88-.49,1.47,1.47,0,0,1,.94.53,2.86,2.86,0,0,1,.66,1.1c.11.37.21.56.29.56a7.73,7.73,0,0,0,1.38-.61,4.65,4.65,0,0,1,1.75-.58,1.4,1.4,0,0,1,.68.17,2.22,2.22,0,0,1,1,1.37,11.56,11.56,0,0,1,.4,3c0,.36,0,.77,0,1.22a2,2,0,0,1-.24,1.12,1.72,1.72,0,0,1-1.48.85,1.91,1.91,0,0,1-1.73-1.12,4.72,4.72,0,0,1-.19-1.72c0-.9,0-1.34-.1-1.34s-.27.1-.73.29l-.61.24,0,3.7q0,1.07,0,2.4a5,5,0,0,1-.2,1.8,1.66,1.66,0,0,1-1.65,1,2,2,0,0,1-1.87-1.16,2.8,2.8,0,0,1-.23-1.14c0-.52,0-2,0-4.35,0-2.77,0-4.49.14-5.15A3,3,0,0,1,71.74,8.57Z" transform="translate(-39.99 -1.62)"/><path class="cls-1" d="M86.37,7.17a2.3,2.3,0,0,1,.51,0h.46a1.85,1.85,0,0,1,1,.41,1.53,1.53,0,0,1,.56.91A19.32,19.32,0,0,1,89,10.81v.8c0,2.29-.32,3.45-.83,3.48s-1,0-1.5,0c-1,0-1.75-.07-2.09-.12L84,14.92c0,.16-.07.49-.1.65a15.16,15.16,0,0,0-.09,1.8v1.17l1.53.19a22.81,22.81,0,0,1,2.29.34,1.63,1.63,0,0,1,.87.51,1.33,1.33,0,0,1,.31.85,1.29,1.29,0,0,1-.25.77,1.41,1.41,0,0,1-.72.5,19,19,0,0,1-3.09.19H84a10,10,0,0,1-2.28-.16A1.61,1.61,0,0,1,80.8,21a3.24,3.24,0,0,1-.26-1.58c0-.72,0-1.36,0-1.92A41.85,41.85,0,0,1,81,12.1a20.69,20.69,0,0,1,.53-2.67,1.84,1.84,0,0,1,.66-1,12.8,12.8,0,0,1,1.75-.58Q85.44,7.37,86.37,7.17Zm-.15,4v-.24q0-.78-.24-.78a6.34,6.34,0,0,0-.9.29,2,2,0,0,0-.83.47,1.62,1.62,0,0,0-.19.84c0,.16,0,.37,0,.49l1,.07a5.06,5.06,0,0,0,.63,0,1.65,1.65,0,0,0,.46,0C86.19,12.24,86.22,11.86,86.22,11.13Z" transform="translate(-39.99 -1.62)"/><path class="cls-1" d="M82.4,6.38a28.26,28.26,0,0,1,2.69-3c.47-.45.79-1.14,1.46-1.3a3.69,3.69,0,0,1,2.36.08.24.24,0,0,1,.16.25,3.7,3.7,0,0,1-.89,2.19c-.42.54-1.18.55-1.79.8a28.29,28.29,0,0,1-3.82,1.22.16.16,0,0,1-.17-.25Z" transform="translate(-39.99 -1.62)"/></svg>